<?xml version="1.0" encoding="UTF-8"?>
<svg id="Layer_2" data-name="Layer 2" xmlns="http://www.w3.org/2000/svg" viewBox="0 0 18.25 12.35">
  <g id="Layer_1-2" data-name="Layer 1">
    <path class="cls-1" d="M2.33,12.35c-.78-.31-1.53-.59-2.26-.91-.08-.03-.09-.34-.04-.49,.49-1.5,1.01-2.99,1.52-4.49,.6-1.76,1.2-3.53,1.79-5.29,.1-.32,.27-.5,.6-.58,.65-.17,1.29-.35,1.93-.55,.38-.12,.44,.17,.53,.39,.33,.83,.64,1.67,.96,2.5,.98,2.56,1.96,5.12,2.94,7.68,.04,.11,.08,.23,.13,.33,.17,.35,.12,.55-.3,.68-.49,.15-.96,.4-1.44,.61-.31,.14-.45,.02-.55-.28-.24-.72-.53-1.42-.77-2.15-.11-.33-.29-.44-.62-.43-.96,.01-1.91,.02-2.87,0-.39,0-.6,.13-.72,.51-.24,.79-.52,1.58-.82,2.48Zm2.92-8s-.09,0-.13,0c-.29,.81-.58,1.62-.89,2.46h2.02c-.35-.87-.67-1.67-1-2.47Z"/>
    <path class="cls-1" d="M10.63,5.79c.86,0,1.65-.02,2.44,0,.46,.02,.61-.14,.58-.59-.03-.61,0-1.22,0-1.83,0-.28,.09-.45,.4-.46,.24-.01,.48-.05,.7-.11,.35-.1,.42,.06,.42,.36,0,.73,0,1.46,0,2.19,0,.33,.12,.45,.45,.44,.61-.02,1.22,.01,1.83,0,.37-.01,.59,.07,.63,.49,.02,.32,.11,.64,.19,1.03-.79,0-1.52,0-2.24,0-.93,0-.85-.08-.85,.84,0,.55,.02,1.11-.02,1.65-.01,.15-.21,.3-.33,.44-.01,.02-.06,.01-.09,.02q-1.09,.24-1.09-.88c0-.52-.02-1.04,0-1.57,.02-.4-.14-.52-.52-.51-.61,.02-1.22,0-1.83,.01-.32,0-.47-.13-.51-.43-.05-.34-.09-.67-.15-1.1Z"/>
  </g>
</svg>