<?xml version="1.0" encoding="UTF-8"?>
<svg id="Layer_2" data-name="Layer 2" xmlns="http://www.w3.org/2000/svg" viewBox="0 0 20 20">
  <defs>
    <style>
      .cls-1 {
        fill-rule: evenodd;
      }
    </style>
  </defs>
  <g id="Layer_1-2" data-name="Layer 1">
    <path class="cls-1" d="M.52,5.82c-.52,.95-.52,2.09-.52,4.38v1.52c0,3.9,0,5.85,1.17,7.06,1.17,1.21,3.06,1.21,6.83,1.21h4c3.77,0,5.66,0,6.83-1.21,1.17-1.21,1.17-3.16,1.17-7.06v-1.52c0-2.29,0-3.43-.52-4.38-.52-.95-1.47-1.54-3.36-2.71l-2-1.24c-2.01-1.24-3.01-1.87-4.12-1.87s-2.11,.62-4.12,1.87l-2,1.24c-1.9,1.18-2.85,1.77-3.36,2.71Zm6.93,7.57c-.33-.25-.8-.18-1.05,.16-.25,.33-.18,.8,.16,1.05,.97,.72,2.16,1.15,3.45,1.15s2.47-.43,3.45-1.15c.33-.25,.4-.72,.16-1.05-.25-.33-.72-.4-1.05-.16-.73,.54-1.61,.85-2.55,.85s-1.82-.31-2.55-.85Z"/>
  </g>
</svg>