<?xml version="1.0" encoding="UTF-8"?>
<svg id="Layer_2" data-name="Layer 2" xmlns="http://www.w3.org/2000/svg" viewBox="0 0 20.53 44.75">
  <defs>
    <style>
      .cls-1 {
        fill: none;
        stroke: #000;
        stroke-miterlimit: 10;
      }
    </style>
  </defs>
  <g id="Layer_1-2" data-name="Layer 1">
    <circle class="cls-1" cx="10.27" cy="22.12" r="9.77"/>
    <path d="M10.32,28.56c-.41,.35-.81,.5-1.21,.43-.72-.13-1.08-.58-1.08-1.35,0-.52,.19-.99,.56-1.43,.38-.43,.82-.65,1.34-.65,.77,0,1.16,.41,1.16,1.24,0,.72-.26,1.31-.77,1.76Zm.95-12.55c0,2.67-.22,5.4-.66,8.19-.09,.53-.39,.79-.92,.79-.47,0-.71-.29-.71-.89,0-.15,.02-.3,.05-.45,.43-2.06,.64-4.73,.64-7.99,0-.5,.24-.76,.71-.76,.59,0,.89,.37,.89,1.11Zm-1.32,11.34c.03-.28-.05-.44-.24-.47-.24-.06-.41,.05-.53,.35-.12,.31-.03,.49,.27,.55,.29,.05,.46-.09,.5-.43Z"/>
  </g>
</svg>