<?xml version="1.0" encoding="UTF-8"?>
<svg id="Layer_2" data-name="Layer 2" xmlns="http://www.w3.org/2000/svg" viewBox="0 0 21.34 24.58">
  <g id="Layer_1-2" data-name="Layer 1">
    <path d="M16.59,0H4.74C2.13,0,0,2.14,0,4.74V22.05c0,2.21,1.58,3.15,3.53,2.08l6-3.33c.64-.36,1.67-.36,2.3,0l6,3.33c1.94,1.08,3.53,.15,3.53-2.08V4.74c-.01-2.6-2.14-4.74-4.75-4.74Zm-2.47,10.4c-.97,.72-2.16,1.15-3.45,1.15s-2.47-.43-3.45-1.15c-.33-.25-.4-.72-.16-1.05,.25-.33,.72-.4,1.05-.16,.73,.54,1.61,.85,2.55,.85s1.83-.31,2.55-.85c.33-.25,.8-.18,1.05,.16,.25,.33,.18,.8-.16,1.05Z"/>
  </g>
</svg>