<?xml version="1.0" encoding="UTF-8"?>
<svg id="Layer_2" data-name="Layer 2" xmlns="http://www.w3.org/2000/svg" viewBox="0 0 87.03 93.99">
  <defs>
    <style>
      .cls-1 {
        fill: #b24f9e;
      }

      .cls-2 {
        fill: #f7ec13;
      }

      .cls-3 {
        fill: #f47820;
      }
    </style>
  </defs>
  <g id="Layer_1-2" data-name="Layer 1">
    <path class="cls-1" d="M82.23,0H20.46c-2.65,0-4.8,2.39-4.8,5.33V46.99H87.03V5.33c0-2.94-2.15-5.33-4.8-5.33Zm-28.32,41.52l-2.57,2.57-2.57-2.57-6.93-6.93,2.57-2.57,6.93,6.93,6.93-6.93,2.57,2.57-6.93,6.93Z"/>
    <path class="cls-3" d="M15.66,51.68v37.51c0,2.65,2.15,4.8,4.8,4.8h61.77c2.65,0,4.8-2.15,4.8-4.8V51.68H15.66Zm42.62,14.93l-6.93-6.93-6.93,6.93-2.57-2.57,6.93-6.93,2.57-2.57,2.57,2.57,6.93,6.93-2.57,2.57Z"/>
    <polygon class="cls-2" points="31.32 45.89 22.57 45.72 29.41 38.91 27.86 37.2 19.99 42.13 21.73 33.22 19.49 32.67 15.72 41.21 11.89 32.02 9.73 32.83 11.76 42.85 3.36 37.34 2.02 39.22 9.07 46.13 .02 47.49 0 49.89 9.33 50.25 2.21 56.81 3.54 58.81 12.59 53.18 11.62 63.55 13.89 63.99 16.58 55.88 20.82 63.6 22.94 62.69 20.18 52.89 28.95 56.68 30.24 54.77 23.14 49.75 31.32 48.2 31.32 45.89"/>
  </g>
</svg>