<?xml version="1.0" encoding="UTF-8"?>
<svg id="Layer_2" data-name="Layer 2" xmlns="http://www.w3.org/2000/svg" viewBox="0 0 16.38 18.07">
  <g id="Layer_1-2" data-name="Layer 1">
    <g>
      <path d="M10.95,2.37h-1.78V1.02c0-.48-.33-.93-.81-1.01-.61-.1-1.14,.37-1.14,.96v1.39h-1.78c-1.48,0-2.68,1.2-2.68,2.68v2.07c0,1.48,1.2,2.68,2.68,2.68h5.51c1.48,0,2.68-1.2,2.68-2.68v-2.07c0-1.48-1.2-2.68-2.68-2.68ZM6.52,7.06c-.86,.21-1.62-.55-1.41-1.41,.1-.41,.43-.74,.84-.84,.86-.21,1.62,.55,1.41,1.41-.1,.41-.43,.74-.84,.84Zm3.89,0c-.86,.21-1.62-.55-1.41-1.41,.1-.41,.43-.74,.84-.84,.86-.21,1.62,.55,1.41,1.41-.1,.41-.43,.74-.84,.84Z"/>
      <path d="M8.2,10.33C4.33,10.33,1.07,12.74,.06,16.27c-.14,.48-.03,1.02,.32,1.38,.26,.26,.62,.42,1.01,.42H14.98c.4,0,.75-.16,1.01-.42,.35-.35,.46-.9,.32-1.38-1.02-3.54-4.26-5.95-8.12-5.95Z"/>
    </g>
  </g>
</svg>