<?xml version="1.0" encoding="UTF-8"?>
<svg id="Layer_2" data-name="Layer 2" xmlns="http://www.w3.org/2000/svg" viewBox="0 0 16.8 22.07">
  <g id="Layer_1-2" data-name="Layer 1">
    <path d="M12.29,9.92h-3.69V1.02c0-.56-.46-1.02-1.02-1.02h-2.3c-.56,0-1.02,.46-1.02,1.02V9.92H.57c-.51,0-.76,.62-.4,.98l5.11,5.11c.63,.63,1.66,.63,2.3,0l5.11-5.11c.36-.36,.11-.98-.4-.98Z"/>
    <path d="M12.6,13.67c-2.32,0-4.2,1.88-4.2,4.2s1.88,4.2,4.2,4.2,4.2-1.88,4.2-4.2-1.88-4.2-4.2-4.2Zm.16,4.02v.69h-2.7c-.19,0-.35-.15-.35-.35s.15-.35,.35-.35h2.01v-2.7c0-.19,.15-.35,.35-.35s.35,.15,.35,.35v2.7Z"/>
  </g>
</svg>