<?xml version="1.0" encoding="UTF-8"?>
<svg id="Layer_2" data-name="Layer 2" xmlns="http://www.w3.org/2000/svg" viewBox="0 0 18.17 18.17">
  <defs>
    <style>
      .cls-1 {
        fill: none;
        stroke: #000;
        stroke-linecap: round;
        stroke-width: 1.5px;
      }
    </style>
  </defs>
  <g id="Layer_1-2" data-name="Layer 1">
    <g>
      <circle class="cls-1" cx="9.08" cy="9.08" r="2.5"/>
      <path class="cls-1" d="M7.47,1.89c.54-1.51,2.68-1.51,3.22,0,.34,.95,1.43,1.4,2.34,.97,1.45-.69,2.97,.82,2.28,2.28-.43,.91,.02,2,.97,2.34,1.51,.54,1.51,2.68,0,3.22-.95,.34-1.4,1.43-.97,2.34,.69,1.45-.82,2.97-2.28,2.28-.91-.43-2,.02-2.34,.97-.54,1.51-2.68,1.51-3.22,0-.34-.95-1.43-1.4-2.34-.97-1.45,.69-2.97-.82-2.28-2.28,.43-.91-.02-2-.97-2.34-1.51-.54-1.51-2.68,0-3.22,.95-.34,1.4-1.43,.97-2.34-.69-1.45,.82-2.97,2.28-2.28,.91,.43,2-.02,2.34-.97Z"/>
    </g>
  </g>
</svg>