<?xml version="1.0" encoding="UTF-8"?>
<svg id="Layer_2" data-name="Layer 2" xmlns="http://www.w3.org/2000/svg" viewBox="0 0 27.9 27.9">
  <defs>
    <style>
      .cls-1 {
        fill-rule: evenodd;
      }
    </style>
  </defs>
  <g id="Layer_1-2" data-name="Layer 1">
    <path class="cls-1" d="M27.9,13.95c0,7.7-6.24,13.95-13.95,13.95S0,21.65,0,13.95,6.24,0,13.95,0s13.95,6.24,13.95,13.95Zm-13.95,8.02c.58,0,1.05-.47,1.05-1.05V12.55c0-.58-.47-1.05-1.05-1.05s-1.05,.47-1.05,1.05v8.37c0,.58,.47,1.05,1.05,1.05Zm0-14.99c.77,0,1.39,.62,1.39,1.39s-.62,1.39-1.39,1.39-1.39-.62-1.39-1.39,.62-1.39,1.39-1.39Z"/>
  </g>
</svg>