<?xml version="1.0" encoding="UTF-8"?>
<svg id="Layer_2" data-name="Layer 2" xmlns="http://www.w3.org/2000/svg" viewBox="0 0 21.21 24.28">
  <defs>
    <style>
      .cls-1 {
        fill: none;
        stroke: #000;
        stroke-miterlimit: 10;
      }
    </style>
  </defs>
  <g id="Layer_1-2" data-name="Layer 1">
    <path class="cls-1" d="M16.21,.5H4.99C2.51,.5,.5,2.52,.5,4.99V21.39c0,2.09,1.5,2.98,3.34,1.97l5.68-3.15c.61-.34,1.58-.34,2.18,0l5.68,3.15c1.84,1.02,3.34,.14,3.34-1.97V4.99c-.01-2.47-2.02-4.49-4.5-4.49Z"/>
    <path d="M7.53,12.14h2.16v2.15c0,.5,.42,.92,.92,.92s.92-.42,.92-.92v-2.15h2.14c.5,0,.92-.42,.92-.92s-.42-.92-.92-.92h-2.14v-2.15c0-.5-.42-.92-.92-.92s-.92,.42-.92,.92v2.15h-2.16c-.5,0-.92,.42-.92,.92s.42,.92,.92,.92Z"/>
  </g>
</svg>