<?xml version="1.0" encoding="UTF-8"?>
<svg id="Layer_2" data-name="Layer 2" xmlns="http://www.w3.org/2000/svg" viewBox="0 0 28.4 28.4">
  <g id="Layer_1-2" data-name="Layer 1">
    <path d="M15.01,20.76c-.21,.23-.5,.36-.81,.36s-.6-.13-.81-.36l-5.83-6.37c-.41-.45-.38-1.14,.07-1.54,.45-.41,1.14-.38,1.54,.07l3.93,4.3V1.09c0-.6,.49-1.09,1.09-1.09s1.09,.49,1.09,1.09V17.21l3.93-4.3c.41-.45,1.1-.48,1.54-.07s.48,1.1,.07,1.54l-5.83,6.37Z"/>
    <path d="M2.18,18.57c0-.6-.49-1.09-1.09-1.09S0,17.97,0,18.57v.08c0,1.99,0,3.6,.17,4.86,.18,1.31,.55,2.41,1.43,3.29,.88,.88,1.98,1.25,3.29,1.43,1.26,.17,2.87,.17,4.86,.17h8.9c1.99,0,3.6,0,4.86-.17,1.31-.18,2.41-.55,3.29-1.43s1.25-1.98,1.43-3.29c.17-1.26,.17-2.87,.17-4.86v-.08c0-.6-.49-1.09-1.09-1.09s-1.09,.49-1.09,1.09c0,2.09,0,3.55-.15,4.65-.14,1.07-.41,1.63-.81,2.04s-.97,.67-2.04,.81c-1.1,.15-2.56,.15-4.65,.15H9.83c-2.09,0-3.55,0-4.65-.15-1.07-.14-1.63-.41-2.04-.81s-.67-.97-.81-2.04c-.15-1.1-.15-2.56-.15-4.65Z"/>
  </g>
</svg>