<?xml version="1.0" encoding="UTF-8"?>
<svg id="Layer_2" data-name="Layer 2" xmlns="http://www.w3.org/2000/svg" viewBox="0 0 26.32 25.66">
  <g id="Layer_1-2" data-name="Layer 1">
    <path d="M8.8,20.66c0,.11-.12,.19-.28,.19-.18,.02-.3-.07-.3-.19,0-.11,.12-.19,.28-.19,.16-.02,.3,.07,.3,.19Zm-1.65-.24c-.04,.11,.07,.23,.23,.26,.14,.05,.3,0,.33-.11s-.07-.23-.23-.28c-.14-.04-.29,.02-.33,.12Zm2.35-.09c-.15,.04-.26,.14-.24,.26,.02,.11,.15,.18,.31,.14,.15-.04,.26-.14,.24-.24-.02-.1-.16-.17-.31-.15ZM12.99,0C5.63,0,0,5.59,0,12.95c0,5.89,3.7,10.92,8.99,12.69,.68,.12,.92-.3,.92-.64s-.02-2.14-.02-3.26c0,0-3.71,.8-4.49-1.58,0,0-.6-1.54-1.48-1.94,0,0-1.22-.83,.08-.82,0,0,1.32,.11,2.05,1.37,1.16,2.05,3.11,1.46,3.87,1.11,.12-.85,.47-1.44,.85-1.79-2.97-.33-5.96-.76-5.96-5.86,0-1.46,.4-2.19,1.25-3.13-.14-.34-.59-1.77,.14-3.6,1.11-.34,3.66,1.43,3.66,1.43,1.06-.3,2.2-.45,3.33-.45s2.27,.15,3.33,.45c0,0,2.55-1.78,3.66-1.43,.73,1.84,.28,3.26,.14,3.6,.85,.94,1.37,1.67,1.37,3.13,0,5.12-3.13,5.53-6.09,5.86,.49,.42,.9,1.22,.9,2.46,0,1.79-.02,4-.02,4.44,0,.34,.24,.76,.92,.64,5.31-1.76,8.9-6.8,8.9-12.68C26.32,5.59,20.35,0,12.99,0ZM5.16,18.3c-.07,.05-.05,.18,.04,.28,.08,.08,.21,.12,.28,.05,.07-.05,.05-.18-.04-.28-.08-.08-.21-.12-.28-.05Zm-.57-.43c-.04,.07,.02,.15,.12,.21,.08,.05,.19,.04,.23-.04,.04-.07-.02-.15-.12-.21-.11-.03-.19-.02-.23,.04Zm1.72,1.89c-.08,.07-.05,.23,.07,.33,.12,.12,.28,.14,.34,.05,.07-.07,.04-.23-.07-.33-.12-.12-.28-.14-.34-.05Zm-.6-.78c-.08,.05-.08,.19,0,.31s.23,.18,.3,.12c.08-.07,.08-.21,0-.33-.07-.12-.21-.18-.3-.11Z"/>
  </g>
</svg>