<?xml version="1.0" encoding="UTF-8"?>
<svg id="Layer_2" data-name="Layer 2" xmlns="http://www.w3.org/2000/svg" viewBox="0 0 24.01 24.01">
  <g id="Layer_1-2" data-name="Layer 1">
    <path d="M5.37,24.01H.4V7.98H5.37V24.01ZM2.88,5.79c-1.59,0-2.88-1.32-2.88-2.91C0,1.29,1.29,0,2.88,0c1.59,0,2.88,1.29,2.88,2.88,0,1.59-1.29,2.91-2.88,2.91ZM24,24.01h-4.97v-7.8c0-1.86-.04-4.24-2.59-4.24s-2.98,2.02-2.98,4.11v7.94h-4.97V7.98h4.77v2.19h.07c.66-1.26,2.29-2.59,4.71-2.59,5.04,0,5.96,3.32,5.96,7.63v8.81h0Z"/>
  </g>
</svg>