<?xml version="1.0" encoding="UTF-8"?>
<svg id="Layer_2" data-name="Layer 2" xmlns="http://www.w3.org/2000/svg" viewBox="0 0 79.24 105.47">
  <defs>
    <style>
      .cls-1 {
        fill: #b21f24;
      }
    </style>
  </defs>
  <g id="Layer_1-2" data-name="Layer 1">
    <g>
      <path class="cls-1" d="M37.83,59.9c-.59,1.37-1.22,2.75-1.87,4.11,1.48-.4,2.98-.76,4.47-1.07-.38-.43-.76-.87-1.14-1.32-.5-.56-.99-1.13-1.46-1.71Z"/>
      <path class="cls-1" d="M38.12,39.89c-.03-2.44-.64-2.75-1.08-2.79-.56,.11-1.16,.43-1.56,1.5-.75,2.06-.33,5.54,1.27,9.46,.88-3.07,1.39-5.87,1.37-8.17Z"/>
      <path class="cls-1" d="M16.38,83.12c1.75-.49,4.82-4.1,8.1-9.18-2.6,1.38-4.78,2.91-6.29,4.53-1.92,2.06-2.08,3.57-1.81,4.65Z"/>
      <path class="cls-1" d="M60.95,67.47c-2.07-.78-5.11-1.05-8.66-.89,4.68,3.14,8.61,4.11,10.23,3.52,.25-.09,.43-.16,.43-.83-.01-.32-.09-1.08-2-1.8Z"/>
      <path class="cls-1" d="M77.68,20.25L58.99,1.56c-1.01-1.01-2.35-1.56-3.77-1.56H5.33C2.39,0,0,2.39,0,5.33V100.14c0,2.94,2.39,5.33,5.33,5.33H73.91c2.94,0,5.33-2.39,5.33-5.33V24.02c0-1.42-.56-2.76-1.56-3.77Zm-13.38,54.72c-4.68,1.71-12.4-1.48-19.38-7.58-4.07,.68-8.34,1.75-12.32,3.11-4.59,8.22-9.77,15.09-13.6,17.07-1.02,.53-2.03,.79-2.98,.79-1.42,0-2.7-.58-3.68-1.71l-.24-.28-.15-.34c-1.68-3.65-.81-7.59,2.46-11.09,3.22-3.45,8.56-6.43,14.62-8.71,1.96-3.65,3.82-7.55,5.35-11.33-3.86-6.56-5.43-13.47-3.75-18.07,1-2.76,3.09-4.5,5.88-4.9l.36-.03c3.11,0,5.34,1.84,6.12,5.05,.95,3.9-.37,10.3-2.89,17.28,.91,1.35,1.96,2.69,3.13,4,1.12,1.35,2.24,2.57,3.37,3.66,6.54-.84,12.48-.68,16.2,.72,4.54,1.71,5.3,4.83,5.35,6.53v.05c.02,2.77-1.37,4.87-3.83,5.77Zm-4.35-54.19c-.83,0-1.5-.67-1.5-1.5V6l14.78,14.78h-13.28Z"/>
    </g>
  </g>
</svg>